@startuml sushi_ordering_schema_02

skinparam {
  ' カーディナリティ斜め対策
   linetype ortho
}

' 顧客
entity "Customers" as Customers {
  * customer_id
  --
  * name
  * phone_number
  * created_at
    updated_at
    deleted_at
}

' 商品
entity "Products" as Products {
  * product_id
  --
  * product_name
  * created_at
    price_id<<FK>>
    category_id<<FK>>
    updated_at
    deleted_at
}

' 商品カテゴリ
entity "Categorys" as Categorys {
  * category_id
  --
  * category_name
  * created_at
    updated_at
    deleted_at
}

' 商品金額
entity "Prices" as Prices {
  * price_id
  --
  * product_id<<FK>>
  * tax_id<<FK>>
  * price
  * started_at
    finished_at
    updated_at
    deleted_at
}

' 商品_単品
entity "ProductItems" as ProductItems {
  * product_id<<FK>>
  * item_id<<FK>>
  --
  * item_quantity
}

' 単品
entity "Items" as Items {
  * item_id
  --
  * item_name
  * created_at
    updated_at
    deleted_at
}

' 消費税
entity "Taxes" as Taxes {
  * tax_id
  --
  * tax_rate
  * started_at
    finished_at
}

' 注文
entity "Orders" as Orders {
  * order_id
  --
  * customer_id<<FK>>
    total_quantity
    paid_at
  * created_at
    updated_at
    deleted_at
}

entity "OrderDetails" as OrderDetails {
  * order_detail_id
  --
  * order_id<<FK>>
  * product_id<<FK>>
    order_detail_option_id<<FK>>
    quantity
  * created_at
    updated_at
    deleted_at
}

note top of OrderDetails
  rise_size（しゃりの大小）追加
end note

entity "OrderDetailOptions" as OrderDetailOptions {
  * order_detail_option_id
  --
  * order_detail_id<<FK>>
  * without_wasabi
  * rice_size
  * created_at
    updated_at
    deleted_at
}

Customers ||..o{ Orders
Orders ||..|{ OrderDetails
OrderDetails }o..|| OrderDetailOptions
OrderDetails }o..|| Products
Products ||..o{ ProductItems
Items ||..o{ ProductItems
Products }o..|| Categorys
Products }o..|| Prices
Prices }o..|| Taxes

@enduml